<svg width="276" height="201" viewBox="0 0 276 201" fill="none" xmlns="http://www.w3.org/2000/svg">
<path d="M50.0999 125.25V175.35H75.1499V200.4H25.0499V125.25H50.0999ZM-9.15527e-05 0H25.0499V125.25H-9.15527e-05V0ZM75.1499 100.2H100.2V175.35H75.1499V100.2ZM100.2 75.15H125.25V50.1H150.3V175.35H175.35V200.4H125.25V100.2H100.2V75.15ZM150.3 25.05H175.35V50.1H150.3V25.05ZM175.35 125.25H200.4V175.35H175.35V125.25ZM200.4 75.15H225.45V125.25H200.4V75.15ZM225.45 50.1H250.5V75.15H225.45V50.1ZM250.5 0H275.55V50.1H250.5V0Z" fill="black"/>
</svg>
