<svg width="675" height="106" viewBox="0 0 675 106" fill="none" xmlns="http://www.w3.org/2000/svg">
<path d="M26.4 66V92.4H39.6V105.6H13.2V66H26.4ZM0 0H13.2V66H0V0ZM39.6 52.8H52.8V92.4H39.6V52.8ZM52.8 39.6H66V26.4H79.2V92.4H92.4V105.6H66V52.8H52.8V39.6ZM79.2 13.2H92.4V26.4H79.2V13.2ZM92.4 66H105.6V92.4H92.4V66ZM105.6 39.6H118.8V66H105.6V39.6ZM118.8 26.4H132V39.6H118.8V26.4ZM132 0H145.2V26.4H132V0Z" fill="black"/>
<path d="M569.2 66V92.4H556V66H569.2ZM569.2 92.4H622V105.6H569.2V92.4ZM569.2 39.6H582.4V66H569.2V39.6ZM582.4 13.2H595.6V39.6H582.4V13.2ZM595.6 0H635.2V13.2H622V39.6H608.8V13.2H595.6V0ZM622 79.2H635.2V92.4H622V79.2ZM622 39.6H648.4V26.4H661.6V39.6H674.8V52.8H661.6V66H648.4V52.8H622V39.6ZM635.2 66H648.4V79.2H635.2V66ZM635.2 13.2H648.4V26.4H635.2V13.2Z" fill="black"/>
<path d="M467.2 79.2V92.4H454V79.2H467.2ZM467.2 39.6H480.4V79.2H467.2V39.6ZM480.4 13.2H467.2V39.6H480.4V13.2ZM493.6 0H520V13.2H467.2H480.4V0H493.6ZM467.2 92.4H520V105.6H467.2V92.4ZM520 13.2H533.2V26.4H520V13.2Z" fill="black"/>
<path d="M533.2 92.4V79.2H520V92.4H533.2Z" fill="black"/>
<path d="M533.2 26.4L533.58 79.2H546.4V66V26.4H533.2Z" fill="black"/>
<path d="M339.2 79.2V105.6H326V79.2H339.2ZM339.2 52.8H352.4V79.2H339.2V52.8ZM352.4 26.4H365.6V52.8H352.4V26.4ZM365.6 13.2H378.8V26.4H365.6V13.2ZM378.8 66H392V52.8H378.8V66ZM378.8 0H418.4V13.2H378.8V0ZM392 52.8H431.6V66H418.4V79.2H405.2V66H392V52.8ZM418.4 79.2H431.6V92.4H418.4V79.2ZM418.4 13.2H431.6V26.4H418.4V13.2ZM431.6 92.4H444.8V105.6H431.6V92.4ZM431.6 26.4H444.8V52.8H431.6V26.4Z" fill="black"/>
<path d="M237.2 92.4V105.6H224V92.4H237.2ZM237.2 66H250.4V92.4H237.2V66ZM250.4 39.6H263.6V66H250.4V39.6ZM263.6 66H290V13.2H303.2V66H316.4V79.2V105.6H303.2V79.2L303.2 66H290V79.2H263.6V66ZM263.6 13.2H276.8V39.6H263.6V13.2ZM276.8 0H290V13.2H276.8V0Z" fill="black"/>
<path d="M211.2 92.4V105.6H132V79.2H145.2V92.4H211.2ZM145.2 52.8H158.4V79.2H145.2V52.8ZM158.4 26.4H171.6V39.6H211.2V52.8H158.4V26.4ZM171.6 0H224.4V13.2H184.8V26.4H171.6V0Z" fill="black"/>
</svg>
